<?xml version="1.0" standalone="no"?>
<!DOCTYPE svg PUBLIC "-//W3C//DTD SVG 20010904//EN"
 "http://www.w3.org/TR/2001/REC-SVG-20010904/DTD/svg10.dtd">
<svg version="1.0" xmlns="http://www.w3.org/2000/svg"
 width="1069.000000pt" height="1069.000000pt" viewBox="0 0 1069.000000 1069.000000"
 preserveAspectRatio="xMidYMid meet">
<metadata>
Created by potrace 1.11, written by Peter Selinger 2001-2013
</metadata>
<g transform="translate(0.000000,1069.000000) scale(0.100000,-0.100000)"
fill="#000000" stroke="none">
<path d="M5059 10396 c-2 -3 -51 -8 -109 -11 -58 -4 -108 -9 -111 -11 -3 -1
-37 -6 -75 -9 -38 -3 -76 -8 -84 -10 -8 -2 -35 -7 -60 -10 -53 -7 -172 -27
-240 -40 -314 -60 -768 -203 -1038 -326 -35 -16 -66 -29 -68 -29 -7 0 -269
-131 -359 -180 -499 -270 -1027 -697 -1396 -1131 -26 -30 -60 -70 -76 -89 -69
-81 -226 -295 -315 -431 -285 -434 -513 -926 -639 -1379 -16 -58 -33 -121 -39
-140 -15 -51 -58 -239 -65 -280 -3 -19 -10 -55 -15 -80 -13 -60 -28 -153 -35
-220 -4 -30 -8 -66 -10 -80 -11 -77 -20 -163 -31 -320 -8 -116 -8 -517 0 -603
3 -34 8 -98 11 -142 4 -44 8 -91 10 -105 6 -41 14 -101 20 -158 3 -29 10 -76
16 -105 5 -28 12 -68 15 -87 10 -71 67 -319 105 -455 59 -214 166 -518 239
-680 64 -140 173 -360 214 -429 25 -43 46 -80 46 -82 0 -8 209 -335 258 -404
50 -70 205 -271 225 -292 7 -7 51 -58 99 -113 168 -195 459 -475 615 -593 26
-20 50 -39 53 -42 15 -18 231 -173 353 -254 369 -244 767 -435 1227 -589 219
-73 465 -134 720 -177 69 -11 135 -23 148 -25 12 -2 57 -7 100 -10 42 -4 79
-8 82 -10 16 -10 282 -20 520 -20 308 0 426 7 695 41 121 16 465 84 595 118
131 35 388 116 455 145 11 5 57 23 103 40 226 86 515 226 744 360 234 137 503
332 733 530 195 168 500 485 640 665 17 22 48 62 71 90 193 241 465 701 603
1021 29 66 56 129 61 140 105 228 274 819 305 1068 3 22 7 42 9 46 2 3 7 33
10 65 6 57 9 78 21 159 35 245 41 907 10 1087 -2 14 -7 48 -10 75 -15 137 -14
133 -46 320 -66 381 -192 791 -361 1174 -47 107 -180 374 -198 396 -4 6 -22
37 -40 70 -32 59 -84 144 -121 197 -11 15 -19 29 -19 32 0 10 -193 282 -263
371 -248 315 -593 660 -867 865 -47 36 -87 67 -90 70 -24 26 -377 260 -475
315 -22 12 -69 39 -105 60 -72 41 -299 154 -400 199 -238 105 -657 249 -847
291 -10 2 -49 11 -88 20 -107 24 -166 36 -205 41 -19 2 -57 8 -85 14 -81 16
-107 20 -170 26 -33 3 -62 7 -65 9 -3 2 -45 6 -95 10 -49 4 -101 9 -115 12
-31 7 -694 15 -701 9z"/>
</g>
</svg>
