<svg id="Flat" height="512" viewBox="0 0 512 512" width="512" xmlns="http://www.w3.org/2000/svg"><path d="m80 56h384v432h-352a32 32 0 0 1 -32-32z" fill="#1261a0"/><path d="m144 24h288v432h-288z" fill="#2d85cc"/><path d="m144 456h-64v-432h64" fill="#f7b030"/><path d="m184 64h208v96h-208z" fill="#f7b030"/><g fill="#1261a0"><rect height="64" rx="16" transform="matrix(0 -1 1 0 -320 480)" width="32" x="64" y="368"/><rect height="64" rx="16" transform="matrix(0 -1 1 0 -240 400)" width="32" x="64" y="288"/><rect height="64" rx="16" transform="matrix(0 -1 1 0 -160 320)" width="32" x="64" y="208"/><rect height="64" rx="16" transform="matrix(0 -1 1 0 -80 240)" width="32" x="64" y="128"/><rect height="64" rx="16" transform="matrix(0 -1 1 0 0 160)" width="32" x="64" y="48"/><path d="m320 408h-16a8 8 0 0 0 0 16h16a8 8 0 0 0 0-16z"/><path d="m320 376h-16a8 8 0 0 0 0 16h16a8 8 0 0 0 0-16z"/><path d="m400 408h-48a8 8 0 0 0 0 16h48a8 8 0 0 0 0-16z"/><path d="m400 376h-48a8 8 0 0 0 0 16h48a8 8 0 0 0 0-16z"/></g></svg>