<svg id="Flat" height="512" viewBox="0 0 512 512" width="512" xmlns="http://www.w3.org/2000/svg"><path d="m24 72h464v312h-464z" fill="#2d85cc"/><path d="m256 72h232v312h-232z" fill="#1261a0"/><path d="m256 320h200v32h-200z" fill="#b6b9ba"/><path d="m56 320h400v32h-400z" fill="#c3c6c7"/><path d="m456 48v272h-168a32 32 0 0 0 -32 32v-272a32 32 0 0 1 32-32z" fill="#e1e3e6"/><path d="m256 80v272a32 32 0 0 0 -32-32h-168v-272h168a32 32 0 0 1 32 32z" fill="#e9eef2"/><g fill="#b6b9ba"><path d="m168 224h-80a8 8 0 0 1 0-16h80a8 8 0 0 1 0 16z"/><path d="m224 224h-24a8 8 0 0 1 0-16h24a8 8 0 0 1 0 16z"/><path d="m224 288h-80a8 8 0 0 1 0-16h80a8 8 0 0 1 0 16z"/><path d="m112 288h-24a8 8 0 0 1 0-16h24a8 8 0 0 1 0 16z"/><path d="m224 256h-136a8 8 0 0 1 0-16h136a8 8 0 0 1 0 16z"/><path d="m224 192h-72a8 8 0 0 1 0-16h72a8 8 0 0 1 0 16z"/><path d="m224 160h-72a8 8 0 0 1 0-16h72a8 8 0 0 1 0 16z"/><path d="m424 96h-80a8 8 0 0 1 0-16h80a8 8 0 0 1 0 16z"/><path d="m312 96h-24a8 8 0 0 1 0-16h24a8 8 0 0 1 0 16z"/><path d="m352 160h-64a8 8 0 0 1 0-16h64a8 8 0 0 1 0 16z"/><path d="m424 128h-136a8 8 0 0 1 0-16h136a8 8 0 0 1 0 16z"/><path d="m328 224h-40a8 8 0 0 1 0-16h40a8 8 0 0 1 0 16z"/><path d="m328 288h-40a8 8 0 0 1 0-16h40a8 8 0 0 1 0 16z"/><path d="m328 256h-40a8 8 0 0 1 0-16h40a8 8 0 0 1 0 16z"/><path d="m344 192h-56a8 8 0 0 1 0-16h56a8 8 0 0 1 0 16z"/></g><path d="m88 88h32v32h-32z" fill="#f7b030"/><path d="m88 152h32v32h-32z" fill="#eb423f"/><path d="m224 128h-72a8 8 0 0 1 0-16h72a8 8 0 0 1 0 16z" fill="#b6b9ba"/><path d="m224 96h-72a8 8 0 0 1 0-16h72a8 8 0 0 1 0 16z" fill="#b6b9ba"/><path d="m360 240h32v176h-32z" fill="#eb423f" transform="matrix(-1 0 0 -1 752 656)"/><path d="m392 240h32v176h-32z" fill="#f7b030" transform="matrix(-1 0 0 -1 816 656)"/><path d="m424 240h-64l24.411-74.44a7.959 7.959 0 0 1 15.178 0z" fill="#f0dfce"/><path d="m408.26 192h-32.52l8.67-26.44a7.962 7.962 0 0 1 15.18 0z" fill="#734b39"/><path d="m360 416h64v32h-64z" fill="#734b39" transform="matrix(-1 0 0 -1 784 864)"/><path d="m376 448h32a16 16 0 0 1 16 16v32a0 0 0 0 1 0 0h-64a0 0 0 0 1 0 0v-32a16 16 0 0 1 16-16z" fill="#e1e3e6" transform="matrix(-1 0 0 -1 784 944)"/></svg>